<svg width="40" height="15" viewBox="0 0 40 15" fill="none" xmlns="http://www.w3.org/2000/svg">
<path d="M40 0.5L10.7364 12.9585C8.30975 13.9851 6.27141 14.5 4.62306 14.5C2.75638 14.5 1.40137 13.8467 0.561361 12.5386C0.0330233 11.6987 -0.121978 10.6338 0.0946904 9.34228C0.311359 8.05077 0.88803 6.67593 1.82137 5.21277C2.59971 4.02958 3.87472 2.47476 5.64973 0.546661C5.04767 1.49432 4.60618 2.53485 4.34306 3.62629C3.87639 5.61772 4.29639 7.07922 5.60307 8.01244C6.22474 8.44739 7.07974 8.66569 8.16975 8.66569C9.03976 8.66569 10.0198 8.52571 11.1098 8.24574L40 0.5Z" fill="black"/>
</svg>
