<svg width="21" height="22" viewBox="0 0 21 22" fill="none" xmlns="http://www.w3.org/2000/svg">
<path d="M4.47471 13.9757C5.34981 13.9707 6.19148 13.639 6.83471 13.0457L13.0947 16.6257C13.015 16.902 12.9746 17.1881 12.9747 17.4757C12.9683 18.2872 13.2417 19.0762 13.7489 19.7097C14.2561 20.3433 14.9661 20.7827 15.7594 20.9541C16.5527 21.1254 17.3807 21.0181 18.1042 20.6504C18.8277 20.2826 19.4023 19.6768 19.7314 18.935C20.0605 18.1931 20.1239 17.3605 19.9109 16.5774C19.698 15.7942 19.2217 15.1084 18.5622 14.6353C17.9028 14.1623 17.1005 13.9309 16.2904 13.9801C15.4804 14.0294 14.712 14.3562 14.1147 14.9057L7.85471 11.3257C7.93026 11.0792 7.97066 10.8234 7.97471 10.5657L14.1247 7.04567C14.7188 7.58251 15.4794 7.89875 16.2789 7.94137C17.0785 7.98398 17.8684 7.75037 18.5161 7.27972C19.1639 6.80906 19.6301 6.12999 19.8366 5.35639C20.0431 4.58278 19.9773 3.7617 19.6503 3.03084C19.3232 2.29999 18.7548 1.70381 18.0404 1.34229C17.326 0.98078 16.509 0.875916 15.7264 1.04529C14.9438 1.21467 14.2433 1.64798 13.7423 2.27256C13.2413 2.89713 12.9703 3.67499 12.9747 4.47567C12.9781 4.76297 13.0184 5.04865 13.0947 5.32567L7.40471 8.57567C7.07502 8.06562 6.61828 7.65014 6.0794 7.37007C5.54051 7.09 4.93801 6.95497 4.33114 6.97825C3.72426 7.00154 3.13389 7.18234 2.61804 7.50288C2.1022 7.82342 1.67864 8.27268 1.389 8.80649C1.09936 9.34029 0.95361 9.94028 0.966069 10.5475C0.978527 11.1547 1.14877 11.7482 1.46006 12.2697C1.77135 12.7911 2.21298 13.2226 2.74154 13.5217C3.2701 13.8209 3.86739 13.9773 4.47471 13.9757ZM16.4747 15.9757C16.7714 15.9757 17.0614 16.0636 17.3081 16.2285C17.5547 16.3933 17.747 16.6276 17.8605 16.9016C17.9741 17.1757 18.0038 17.4773 17.9459 17.7683C17.888 18.0593 17.7451 18.3265 17.5354 18.5363C17.3256 18.7461 17.0583 18.889 16.7673 18.9468C16.4764 19.0047 16.1748 18.975 15.9007 18.8615C15.6266 18.748 15.3923 18.5557 15.2275 18.309C15.0627 18.0623 14.9747 17.7723 14.9747 17.4757C14.9747 17.0778 15.1327 16.6963 15.4141 16.415C15.6954 16.1337 16.0769 15.9757 16.4747 15.9757ZM16.4747 2.97567C16.7714 2.97567 17.0614 3.06364 17.3081 3.22846C17.5547 3.39328 17.747 3.62755 17.8605 3.90164C17.9741 4.17573 18.0038 4.47733 17.9459 4.7683C17.888 5.05927 17.7451 5.32655 17.5354 5.53633C17.3256 5.74611 17.0583 5.88897 16.7673 5.94684C16.4764 6.00472 16.1748 5.97502 15.9007 5.86149C15.6266 5.74795 15.3923 5.5557 15.2275 5.30902C15.0627 5.06235 14.9747 4.77234 14.9747 4.47567C14.9747 4.07784 15.1327 3.69631 15.4141 3.41501C15.6954 3.1337 16.0769 2.97567 16.4747 2.97567ZM4.47471 8.97567C4.77138 8.97567 5.06139 9.06364 5.30807 9.22846C5.55474 9.39328 5.747 9.62755 5.86053 9.90164C5.97406 10.1757 6.00377 10.4773 5.94589 10.7683C5.88801 11.0593 5.74515 11.3265 5.53537 11.5363C5.32559 11.7461 5.05832 11.889 4.76735 11.9468C4.47638 12.0047 4.17478 11.975 3.90069 11.8615C3.6266 11.748 3.39233 11.5557 3.22751 11.309C3.06269 11.0623 2.97471 10.7723 2.97471 10.4757C2.97471 10.0778 3.13275 9.69631 3.41405 9.41501C3.69536 9.1337 4.07689 8.97567 4.47471 8.97567Z" fill="black"/>
</svg>
